<svg width="18" height="18" viewBox="0 0 18 18" fill="none" xmlns="http://www.w3.org/2000/svg">
<path d="M5.95451 16.1595C5.7436 15.9485 5.62512 15.6624 5.62512 15.3641C5.62512 15.0658 5.7436 14.7797 5.95451 14.5688L11.5233 9.00001L5.95451 3.43125C5.74958 3.21908 5.63619 2.9349 5.63875 2.63993C5.64132 2.34496 5.75963 2.06279 5.96821 1.85421C6.1768 1.64562 6.45896 1.52731 6.75393 1.52475C7.04891 1.52218 7.33308 1.63558 7.54526 1.84051L13.9094 8.20463C14.1203 8.4156 14.2388 8.7017 14.2388 9.00001C14.2388 9.29832 14.1203 9.58441 13.9094 9.79538L7.54526 16.1595C7.33429 16.3704 7.04819 16.4889 6.74988 16.4889C6.45158 16.4889 6.16548 16.3704 5.95451 16.1595Z" fill="#06D6A0"/>
</svg>
