<svg xmlns="http://www.w3.org/2000/svg" fill="none" viewBox="0.31 0.18 21.38 21.38">
<path d="M6.95215 10.8721C6.95215 16.2241 8.77615 20.5601 11.0241 20.5601" stroke="current" stroke-width="2" stroke-miterlimit="10"/>
<path d="M15.0642 10.8721C15.0642 16.2241 13.2402 20.5601 10.9922 20.5601" stroke="current" stroke-width="2" stroke-miterlimit="10"/>
<path d="M6.93604 10.8716C6.93604 5.51959 8.76004 1.18359 11.008 1.18359" stroke="current" stroke-width="2" stroke-miterlimit="10"/>
<path d="M15.0481 10.8716C15.0481 5.51959 13.2241 1.18359 10.9761 1.18359" stroke="current" stroke-width="2" stroke-miterlimit="10"/>
<path d="M1.77588 14.1836H20.2239" stroke="current" stroke-width="2" stroke-miterlimit="10"/>
<path d="M1.73608 8.02441H20.1921" stroke="current" stroke-width="2" stroke-miterlimit="10"/>
<path d="M11 20.5596C16.3505 20.5596 20.688 16.2221 20.688 10.8716C20.688 5.52106 16.3505 1.18359 11 1.18359C5.64948 1.18359 1.31201 5.52106 1.31201 10.8716C1.31201 16.2221 5.64948 20.5596 11 20.5596Z" stroke="current" stroke-width="2" stroke-miterlimit="10"/>
</svg>