<svg xmlns="http://www.w3.org/2000/svg" fill="none" viewBox="3.38 1.63 14.25 17.53">
<path d="M4.375 8.6825C4.375 12.9278 8.08892 16.4386 9.73279 17.7846C9.96806 17.9772 10.0871 18.0747 10.2626 18.1241C10.3993 18.1626 10.6004 18.1626 10.7371 18.1241C10.913 18.0746 11.0312 17.9781 11.2673 17.7847C12.9112 16.4387 16.6249 12.9282 16.6249 8.68288C16.6249 7.07628 15.9797 5.53529 14.831 4.39926C13.6823 3.26322 12.1245 2.625 10.5001 2.625C8.87562 2.625 7.31763 3.26332 6.16897 4.39935C5.02031 5.53539 4.375 7.0759 4.375 8.6825Z" stroke="#7B7B7B" stroke-width="2" stroke-linecap="round" stroke-linejoin="round"/>
<path d="M8.75 7.875C8.75 8.8415 9.5335 9.625 10.5 9.625C11.4665 9.625 12.25 8.8415 12.25 7.875C12.25 6.9085 11.4665 6.125 10.5 6.125C9.5335 6.125 8.75 6.9085 8.75 7.875Z" stroke="#7B7B7B" stroke-width="2" stroke-linecap="round" stroke-linejoin="round"/>
</svg>